<?xml version="1.0" encoding="UTF-8"?>
<svg width="1400px" height="591px" viewBox="0 0 1400 591" version="1.1" xmlns="http://www.w3.org/2000/svg" xmlns:xlink="http://www.w3.org/1999/xlink">
    <!-- Generator: Sketch 58 (84663) - https://sketch.com -->
    <title>logo</title>
    <desc>Created with Sketch.</desc>
    <defs>
        <path d="M141.052734,354.300781 L141.052734,371 L59.2167969,371 L59.2167969,219.4375 L139.490234,219.4375 L139.490234,234.671875 L78.9433594,234.671875 L78.9433594,286.136719 L133.435547,286.136719 L133.435547,301.273438 L78.9433594,301.273438 L78.9433594,354.300781 L141.052734,354.300781 Z M209.998047,371 L162.634766,261.917969 L182.556641,261.917969 L219.958984,348.246094 L258.142578,261.917969 L276.306641,261.917969 L228.552734,371 L209.998047,371 Z M385.291016,363.773438 C370.772714,370.674514 357.035872,374.125 344.080078,374.125 C334.2493,374.125 325.460325,371.683618 317.712891,366.800781 C309.965456,361.917944 303.764346,354.935592 299.109375,345.853516 C294.454404,336.771439 292.126953,327.054739 292.126953,316.703125 C292.126953,306.742138 294.340473,297.171921 298.767578,287.992188 C303.194684,278.812454 309.379518,271.667343 317.322266,266.556641 C325.265014,261.445938 334.119092,258.890625 343.884766,258.890625 C356.84056,258.890625 367.240846,263.512975 375.085938,272.757812 C382.931029,282.00265 386.853516,296.26032 386.853516,315.53125 L386.853516,319.4375 L311.658203,319.4375 C311.658203,326.989621 313.236963,333.890594 316.394531,340.140625 C319.552099,346.390656 323.702448,351.078109 328.845703,354.203125 C333.988958,357.328141 339.848274,358.890625 346.423828,358.890625 C358.142637,358.890625 371.098236,354.984414 385.291016,347.171875 C399.428631,339.389702 399.866189,356.845328 385.291016,363.773438 Z M312.732422,305.863281 L367.126953,305.863281 L367.126953,303.226562 C367.126953,294.307247 364.945985,287.210964 360.583984,281.9375 C356.221983,276.664036 350.395219,274.027344 343.103516,274.027344 C335.746708,274.027344 329.382839,276.712864 324.011719,282.083984 C318.640598,287.455105 314.88087,295.381458 312.732422,305.863281 Z M421.619141,317.191406 L421.619141,302.054688 L497.400391,302.054688 L497.400391,317.191406 L421.619141,317.191406 Z M621.130859,354.300781 L621.130859,371 L539.294922,371 L539.294922,219.4375 L619.568359,219.4375 L619.568359,234.671875 L559.021484,234.671875 L559.021484,286.136719 L613.513672,286.136719 L613.513672,301.273438 L559.021484,301.273438 L559.021484,354.300781 L621.130859,354.300781 Z M694.763672,366.605469 L644.373047,261.917969 L664.392578,261.917969 L704.529297,343.753906 L738.123047,261.917969 L756.384766,261.917969 L714.099609,363.285156 C705.180294,384.704534 696.700561,398.929652 688.660156,405.960938 C680.619751,412.992223 670.219465,416.507812 657.458984,416.507812 C651.925103,416.507812 646.977235,416.019536 642.615234,415.042969 L642.615234,399.027344 C647.62828,400.589852 652.413389,401.371094 656.970703,401.371094 C662.830107,401.371094 668.038389,400.231782 672.595703,397.953125 C677.153018,395.674468 681.319643,391.63805 685.095703,385.84375 C688.871764,380.04945 691.541008,375.036479 693.103516,370.804688 L694.763672,366.605469 Z M865.369141,363.773438 C850.850839,370.674514 837.113997,374.125 824.158203,374.125 C814.327425,374.125 805.53845,371.683618 797.791016,366.800781 C790.043581,361.917944 783.842471,354.935592 779.1875,345.853516 C774.532529,336.771439 772.205078,327.054739 772.205078,316.703125 C772.205078,306.742138 774.418598,297.171921 778.845703,287.992188 C783.272809,278.812454 789.457643,271.667343 797.400391,266.556641 C805.343139,261.445938 814.197217,258.890625 823.962891,258.890625 C836.918685,258.890625 847.318971,263.512975 855.164062,272.757812 C863.009154,282.00265 866.931641,296.26032 866.931641,315.53125 L866.931641,319.4375 L791.736328,319.4375 C791.736328,326.989621 793.315088,333.890594 796.472656,340.140625 C799.630224,346.390656 803.780573,351.078109 808.923828,354.203125 C814.067083,357.328141 819.926399,358.890625 826.501953,358.890625 C838.220762,358.890625 851.176361,354.984414 865.369141,347.171875 L865.369141,363.773438 Z M792.810547,305.863281 L847.205078,305.863281 L847.205078,303.226562 C847.205078,294.307247 845.02411,287.210964 840.662109,281.9375 C836.300108,276.664036 830.473344,274.027344 823.181641,274.027344 C815.824833,274.027344 809.460964,276.712864 804.089844,282.083984 C798.718723,287.455105 794.958995,295.381458 792.810547,305.863281 Z M899.841797,371 L882.263672,219.4375 L900.232422,219.4375 L910.583984,311.722656 L911.951172,327.054688 L912.439453,327.054688 L914.392578,311.722656 L930.310547,219.4375 L948.279297,219.4375 L966.443359,315.433594 L968.298828,330.082031 L968.787109,330.082031 L969.958984,315.335938 L981.384766,219.4375 L996.814453,219.4375 L978.455078,371 L959.802734,371 L940.271484,268.265625 L938.220703,252.835938 L937.732422,252.835938 L935.876953,268.265625 L918.298828,371 L899.841797,371 Z M1105.4082,363.773438 C1090.8899,370.674514 1077.15306,374.125 1064.19727,374.125 C1054.36649,374.125 1045.57751,371.683618 1037.83008,366.800781 C1030.08264,361.917944 1023.88153,354.935592 1019.22656,345.853516 C1014.57159,336.771439 1012.24414,327.054739 1012.24414,316.703125 C1012.24414,306.742138 1014.45766,297.171921 1018.88477,287.992188 C1023.31187,278.812454 1029.49671,271.667343 1037.43945,266.556641 C1045.3822,261.445938 1054.23628,258.890625 1064.00195,258.890625 C1076.95775,258.890625 1087.35803,263.512975 1095.20312,272.757812 C1103.04822,282.00265 1106.9707,296.26032 1106.9707,315.53125 L1106.9707,319.4375 L1031.77539,319.4375 C1031.77539,326.989621 1033.35415,333.890594 1036.51172,340.140625 C1039.66929,346.390656 1043.81964,351.078109 1048.96289,354.203125 C1054.10615,357.328141 1059.96546,358.890625 1066.54102,358.890625 C1078.25982,358.890625 1091.21542,354.984414 1105.4082,347.171875 L1105.4082,363.773438 Z M1032.84961,305.863281 L1087.24414,305.863281 L1087.24414,303.226562 C1087.24414,294.307247 1085.06317,287.210964 1080.70117,281.9375 C1076.33917,276.664036 1070.51241,274.027344 1063.2207,274.027344 C1055.8639,274.027344 1049.50003,276.712864 1044.12891,282.083984 C1038.75779,287.455105 1034.99806,295.381458 1032.84961,305.863281 Z M1206.38477,346.488281 C1200.85088,355.60291 1194.19405,362.471331 1186.41406,367.09375 C1178.63408,371.716169 1171.48896,374.027344 1164.97852,374.027344 C1155.86389,374.027344 1147.67712,370.088581 1140.41797,362.210938 C1133.15882,354.333294 1129.5293,342.386799 1129.5293,326.371094 C1129.5293,313.740822 1131.93813,302.461638 1136.75586,292.533203 C1141.57359,282.604768 1148.01884,274.759794 1156.0918,268.998047 C1164.16475,263.236299 1174.15814,260.355469 1186.07227,260.355469 L1186.73984,260.359665 C1190.18071,260.401626 1195.16647,260.758297 1201.69727,261.429688 L1202.64171,261.540799 C1203.6093,261.649016 1204.85698,261.774739 1206.38477,261.917969 L1224.64648,261.917969 L1224.64648,338.96875 C1224.64648,352.119857 1226.01366,362.796834 1228.74805,371 L1209.80273,371 L1209.56673,369.981538 C1208.24475,364.095823 1207.1841,356.264806 1206.38477,346.488281 Z M1206.38477,324.90625 L1206.38477,278.128906 C1199.93942,276.436189 1193.9499,275.589844 1188.41602,275.589844 C1177.21804,275.589844 1167.89196,279.919228 1160.4375,288.578125 C1152.98304,297.237022 1149.25586,309.020759 1149.25586,323.929688 C1149.25586,334.737033 1151.29034,342.891249 1155.35938,348.392578 C1159.42841,353.893908 1164.06703,356.644531 1169.27539,356.644531 C1174.93948,356.644531 1181.18942,353.779977 1188.02539,348.050781 C1194.86136,342.321586 1200.98109,334.606819 1206.38477,324.90625 Z M1264.00195,371 L1264.00195,261.917969 L1282.16602,261.917969 L1282.16602,285.746094 C1287.83011,276.761674 1294.32418,270.039736 1301.64844,265.580078 C1308.97269,261.12042 1317.12691,258.890625 1326.11133,258.890625 C1332.68688,258.890625 1339.26234,259.899729 1345.83789,261.917969 L1345.83789,301.273438 L1328.35742,301.273438 L1328.35742,276.371094 C1325.29751,275.850258 1322.88868,275.589844 1321.13086,275.589844 C1314.35999,275.589844 1307.71943,278.259088 1301.20898,283.597656 C1294.69854,288.936225 1288.35094,296.943957 1282.16602,307.621094 L1282.16602,371 L1264.00195,371 Z" id="path-1"></path>
        <filter x="-1.5%" y="-10.9%" width="106.0%" height="123.8%" filterUnits="objectBoundingBox" id="filter-2">
            <feMorphology radius="0.5" operator="dilate" in="SourceAlpha" result="shadowSpreadOuter1"></feMorphology>
            <feOffset dx="34" dy="2" in="shadowSpreadOuter1" result="shadowOffsetOuter1"></feOffset>
            <feGaussianBlur stdDeviation="2" in="shadowOffsetOuter1" result="shadowBlurOuter1"></feGaussianBlur>
            <feComposite in="shadowBlurOuter1" in2="SourceAlpha" operator="out" result="shadowBlurOuter1"></feComposite>
            <feColorMatrix values="0 0 0 0 1   0 0 0 0 0.0150152439   0 0 0 0 0.0150152439  0 0 0 0.5 0" type="matrix" in="shadowBlurOuter1"></feColorMatrix>
        </filter>
        <filter x="-0.2%" y="-2.0%" width="103.3%" height="106.1%" filterUnits="objectBoundingBox" id="filter-3">
            <feOffset dx="-3" dy="0" in="SourceAlpha" result="shadowOffsetInner1"></feOffset>
            <feComposite in="shadowOffsetInner1" in2="SourceAlpha" operator="arithmetic" k2="-1" k3="1" result="shadowInnerInner1"></feComposite>
            <feColorMatrix values="0 0 0 0 0.859997736   0 0 0 0 0.0584201968   0 0 0 0 0.0584201968  0 0 0 0.987926136 0" type="matrix" in="shadowInnerInner1"></feColorMatrix>
        </filter>
    </defs>
    <g id="logo" stroke="none" stroke-width="1" fill="none" fill-rule="evenodd">
        <g id="Eve-EyeWear" fill-rule="nonzero">
            <use fill="black" fill-opacity="1" filter="url(#filter-2)" xlink:href="#path-1"></use>
            <use fill="#FFFFFF" xlink:href="#path-1"></use>
            <use fill="black" fill-opacity="1" filter="url(#filter-3)" xlink:href="#path-1"></use>
            <use stroke="#040404" stroke-width="1" xlink:href="#path-1"></use>
        </g>
    </g>
</svg>